<?xml version="1.0" standalone="no"?>
<svg xmlns="http://www.w3.org/2000/svg" width="280" height="280" xmlns:xlink="http://www.w3.org/1999/xlink" viewBox="0 0 280 280"><defs><clipPath id="clip-path-background-color-0"><rect x="0" y="0" width="280" height="280"/></clipPath><clipPath id="clip-path-dot-color-0"><path d="M 90 2v 11h 11v -5.5a 5.5 5.5, 0, 0, 0, -5.5 -5.5" transform="rotate(-90,95.5,7.5)"/><rect x="101" y="2" width="11" height="11" transform="rotate(0,106.5,7.5)"/><path d="M 112 2v 11h 11v -5.5a 5.5 5.5, 0, 0, 0, -5.5 -5.5" transform="rotate(0,117.5,7.5)"/><path d="M 134 2v 11h 5.5a 5.5 5.5, 0, 0, 0, 0 -11" transform="rotate(-90,139.5,7.5)"/><circle cx="183.5" cy="7.5" r="5.5" transform="rotate(0,183.5,7.5)"/><path d="M 90 13v 11h 11v -5.5a 5.5 5.5, 0, 0, 0, -5.5 -5.5" transform="rotate(180,95.5,18.5)"/><rect x="101" y="13" width="11" height="11" transform="rotate(0,106.5,18.5)"/><rect x="112" y="13" width="11" height="11" transform="rotate(0,117.5,18.5)"/><rect x="123" y="13" width="11" height="11" transform="rotate(0,128.5,18.5)"/><rect x="134" y="13" width="11" height="11" transform="rotate(0,139.5,18.5)"/><path d="M 145 13v 11h 11v -5.5a 5.5 5.5, 0, 0, 0, -5.5 -5.5" transform="rotate(0,150.5,18.5)"/><rect x="134" y="24" width="11" height="11" transform="rotate(0,139.5,29.5)"/><rect x="145" y="24" width="11" height="11" transform="rotate(0,150.5,29.5)"/><rect x="156" y="24" width="11" height="11" transform="rotate(0,161.5,29.5)"/><path d="M 167 24v 11h 5.5a 5.5 5.5, 0, 0, 0, 0 -11" transform="rotate(0,172.5,29.5)"/><circle cx="95.5" cy="40.5" r="5.5" transform="rotate(0,95.5,40.5)"/><path d="M 112 35v 11h 5.5a 5.5 5.5, 0, 0, 0, 0 -11" transform="rotate(-90,117.5,40.5)"/><path d="M 134 35v 11h 11v -5.5a 5.5 5.5, 0, 0, 0, -5.5 -5.5" transform="rotate(180,139.5,40.5)"/><rect x="145" y="35" width="11" height="11" transform="rotate(0,150.5,40.5)"/><path d="M 101 46v 11h 5.5a 5.5 5.5, 0, 0, 0, 0 -11" transform="rotate(180,106.5,51.5)"/><path d="M 112 46v 11h 11v -5.5a 5.5 5.5, 0, 0, 0, -5.5 -5.5" transform="rotate(90,117.5,51.5)"/><path d="M 145 46v 11h 11v -5.5a 5.5 5.5, 0, 0, 0, -5.5 -5.5" transform="rotate(180,150.5,51.5)"/><rect x="156" y="46" width="11" height="11" transform="rotate(0,161.5,51.5)"/><rect x="167" y="46" width="11" height="11" transform="rotate(0,172.5,51.5)"/><path d="M 178 46v 11h 5.5a 5.5 5.5, 0, 0, 0, 0 -11" transform="rotate(0,183.5,51.5)"/><path d="M 123 57v 11h 5.5a 5.5 5.5, 0, 0, 0, 0 -11" transform="rotate(180,128.5,62.5)"/><path d="M 134 57v 11h 11v -5.5a 5.5 5.5, 0, 0, 0, -5.5 -5.5" transform="rotate(0,139.5,62.5)"/><rect x="156" y="57" width="11" height="11" transform="rotate(0,161.5,62.5)"/><path d="M 90 68v 11h 5.5a 5.5 5.5, 0, 0, 0, 0 -11" transform="rotate(-90,95.5,73.5)"/><path d="M 112 68v 11h 5.5a 5.5 5.5, 0, 0, 0, 0 -11" transform="rotate(-90,117.5,73.5)"/><path d="M 134 68v 11h 5.5a 5.5 5.5, 0, 0, 0, 0 -11" transform="rotate(90,139.5,73.5)"/><rect x="156" y="68" width="11" height="11" transform="rotate(0,161.5,73.5)"/><circle cx="183.5" cy="73.5" r="5.5" transform="rotate(0,183.5,73.5)"/><path d="M 90 79v 11h 11v -5.5a 5.5 5.5, 0, 0, 0, -5.5 -5.5" transform="rotate(180,95.5,84.5)"/><rect x="101" y="79" width="11" height="11" transform="rotate(0,106.5,84.5)"/><path d="M 112 79v 11h 11v -5.5a 5.5 5.5, 0, 0, 0, -5.5 -5.5" transform="rotate(90,117.5,84.5)"/><rect x="156" y="79" width="11" height="11" transform="rotate(0,161.5,84.5)"/><circle cx="7.5" cy="95.5" r="5.5" transform="rotate(0,7.5,95.5)"/><path d="M 24 90v 11h 11v -5.5a 5.5 5.5, 0, 0, 0, -5.5 -5.5" transform="rotate(-90,29.5,95.5)"/><path d="M 35 90v 11h 11v -5.5a 5.5 5.5, 0, 0, 0, -5.5 -5.5" transform="rotate(0,40.5,95.5)"/><path d="M 57 90v 11h 5.5a 5.5 5.5, 0, 0, 0, 0 -11" transform="rotate(180,62.5,95.5)"/><rect x="68" y="90" width="11" height="11" transform="rotate(0,73.5,95.5)"/><path d="M 79 90v 11h 11v -5.5a 5.5 5.5, 0, 0, 0, -5.5 -5.5" transform="rotate(0,84.5,95.5)"/><rect x="101" y="90" width="11" height="11" transform="rotate(0,106.5,95.5)"/><path d="M 123 90v 11h 11v -5.5a 5.5 5.5, 0, 0, 0, -5.5 -5.5" transform="rotate(-90,128.5,95.5)"/><path d="M 134 90v 11h 11v -5.5a 5.5 5.5, 0, 0, 0, -5.5 -5.5" transform="rotate(0,139.5,95.5)"/><path d="M 156 90v 11h 11v -5.5a 5.5 5.5, 0, 0, 0, -5.5 -5.5" transform="rotate(180,161.5,95.5)"/><rect x="167" y="90" width="11" height="11" transform="rotate(0,172.5,95.5)"/><path d="M 178 90v 11h 11v -5.5a 5.5 5.5, 0, 0, 0, -5.5 -5.5" transform="rotate(0,183.5,95.5)"/><circle cx="205.5" cy="95.5" r="5.5" transform="rotate(0,205.5,95.5)"/><circle cx="238.5" cy="95.5" r="5.5" transform="rotate(0,238.5,95.5)"/><path d="M 255 90v 11h 11v -5.5a 5.5 5.5, 0, 0, 0, -5.5 -5.5" transform="rotate(-90,260.5,95.5)"/><path d="M 266 90v 11h 5.5a 5.5 5.5, 0, 0, 0, 0 -11" transform="rotate(0,271.5,95.5)"/><rect x="24" y="101" width="11" height="11" transform="rotate(0,29.5,106.5)"/><rect x="35" y="101" width="11" height="11" transform="rotate(0,40.5,106.5)"/><path d="M 79 101v 11h 5.5a 5.5 5.5, 0, 0, 0, 0 -11" transform="rotate(90,84.5,106.5)"/><path d="M 101 101v 11h 5.5a 5.5 5.5, 0, 0, 0, 0 -11" transform="rotate(90,106.5,106.5)"/><rect x="123" y="101" width="11" height="11" transform="rotate(0,128.5,106.5)"/><rect x="134" y="101" width="11" height="11" transform="rotate(0,139.5,106.5)"/><rect x="178" y="101" width="11" height="11" transform="rotate(0,183.5,106.5)"/><path d="M 189 101v 11h 11v -5.5a 5.5 5.5, 0, 0, 0, -5.5 -5.5" transform="rotate(0,194.5,106.5)"/><path d="M 211 101v 11h 5.5a 5.5 5.5, 0, 0, 0, 0 -11" transform="rotate(-90,216.5,106.5)"/><path d="M 255 101v 11h 5.5a 5.5 5.5, 0, 0, 0, 0 -11" transform="rotate(90,260.5,106.5)"/><path d="M 2 112v 11h 5.5a 5.5 5.5, 0, 0, 0, 0 -11" transform="rotate(180,7.5,117.5)"/><rect x="13" y="112" width="11" height="11" transform="rotate(0,18.5,117.5)"/><rect x="24" y="112" width="11" height="11" transform="rotate(0,29.5,117.5)"/><rect x="35" y="112" width="11" height="11" transform="rotate(0,40.5,117.5)"/><circle cx="73.5" cy="117.5" r="5.5" transform="rotate(0,73.5,117.5)"/><circle cx="95.5" cy="117.5" r="5.5" transform="rotate(0,95.5,117.5)"/><path d="M 123 112v 11h 11v -5.5a 5.5 5.5, 0, 0, 0, -5.5 -5.5" transform="rotate(180,128.5,117.5)"/><rect x="134" y="112" width="11" height="11" transform="rotate(0,139.5,117.5)"/><rect x="145" y="112" width="11" height="11" transform="rotate(0,150.5,117.5)"/><path d="M 156 112v 11h 11v -5.5a 5.5 5.5, 0, 0, 0, -5.5 -5.5" transform="rotate(0,161.5,117.5)"/><rect x="178" y="112" width="11" height="11" transform="rotate(0,183.5,117.5)"/><path d="M 189 112v 11h 11v -5.5a 5.5 5.5, 0, 0, 0, -5.5 -5.5" transform="rotate(90,194.5,117.5)"/><rect x="211" y="112" width="11" height="11" transform="rotate(0,216.5,117.5)"/><path d="M 222 112v 11h 5.5a 5.5 5.5, 0, 0, 0, 0 -11" transform="rotate(0,227.5,117.5)"/><path d="M 24 123v 11h 11v -5.5a 5.5 5.5, 0, 0, 0, -5.5 -5.5" transform="rotate(180,29.5,128.5)"/><rect x="35" y="123" width="11" height="11" transform="rotate(0,40.5,128.5)"/><path d="M 46 123v 11h 5.5a 5.5 5.5, 0, 0, 0, 0 -11" transform="rotate(0,51.5,128.5)"/><path d="M 101 123v 11h 11v -5.5a 5.5 5.5, 0, 0, 0, -5.5 -5.5" transform="rotate(-90,106.5,128.5)"/><path d="M 112 123v 11h 5.5a 5.5 5.5, 0, 0, 0, 0 -11" transform="rotate(0,117.5,128.5)"/><path d="M 134 123v 11h 11v -5.5a 5.5 5.5, 0, 0, 0, -5.5 -5.5" transform="rotate(180,139.5,128.5)"/><rect x="145" y="123" width="11" height="11" transform="rotate(0,150.5,128.5)"/><rect x="156" y="123" width="11" height="11" transform="rotate(0,161.5,128.5)"/><rect x="167" y="123" width="11" height="11" transform="rotate(0,172.5,128.5)"/><path d="M 178 123v 11h 11v -5.5a 5.5 5.5, 0, 0, 0, -5.5 -5.5" transform="rotate(90,183.5,128.5)"/><path d="M 200 123v 11h 11v -5.5a 5.5 5.5, 0, 0, 0, -5.5 -5.5" transform="rotate(-90,205.5,128.5)"/><rect x="211" y="123" width="11" height="11" transform="rotate(0,216.5,128.5)"/><path d="M 233 123v 11h 5.5a 5.5 5.5, 0, 0, 0, 0 -11" transform="rotate(180,238.5,128.5)"/><path d="M 244 123v 11h 11v -5.5a 5.5 5.5, 0, 0, 0, -5.5 -5.5" transform="rotate(0,249.5,128.5)"/><circle cx="7.5" cy="139.5" r="5.5" transform="rotate(0,7.5,139.5)"/><rect x="35" y="134" width="11" height="11" transform="rotate(0,40.5,139.5)"/><circle cx="73.5" cy="139.5" r="5.5" transform="rotate(0,73.5,139.5)"/><rect x="101" y="134" width="11" height="11" transform="rotate(0,106.5,139.5)"/><path d="M 123 134v 11h 5.5a 5.5 5.5, 0, 0, 0, 0 -11" transform="rotate(-90,128.5,139.5)"/><rect x="145" y="134" width="11" height="11" transform="rotate(0,150.5,139.5)"/><rect x="156" y="134" width="11" height="11" transform="rotate(0,161.5,139.5)"/><path d="M 189 134v 11h 11v -5.5a 5.5 5.5, 0, 0, 0, -5.5 -5.5" transform="rotate(-90,194.5,139.5)"/><rect x="200" y="134" width="11" height="11" transform="rotate(0,205.5,139.5)"/><rect x="211" y="134" width="11" height="11" transform="rotate(0,216.5,139.5)"/><path d="M 222 134v 11h 11v -5.5a 5.5 5.5, 0, 0, 0, -5.5 -5.5" transform="rotate(0,227.5,139.5)"/><path d="M 244 134v 11h 11v -5.5a 5.5 5.5, 0, 0, 0, -5.5 -5.5" transform="rotate(180,249.5,139.5)"/><rect x="255" y="134" width="11" height="11" transform="rotate(0,260.5,139.5)"/><path d="M 266 134v 11h 11v -5.5a 5.5 5.5, 0, 0, 0, -5.5 -5.5" transform="rotate(0,271.5,139.5)"/><path d="M 13 145v 11h 11v -5.5a 5.5 5.5, 0, 0, 0, -5.5 -5.5" transform="rotate(-90,18.5,150.5)"/><rect x="24" y="145" width="11" height="11" transform="rotate(0,29.5,150.5)"/><path d="M 35 145v 11h 11v -5.5a 5.5 5.5, 0, 0, 0, -5.5 -5.5" transform="rotate(90,40.5,150.5)"/><path d="M 101 145v 11h 5.5a 5.5 5.5, 0, 0, 0, 0 -11" transform="rotate(90,106.5,150.5)"/><path d="M 123 145v 11h 5.5a 5.5 5.5, 0, 0, 0, 0 -11" transform="rotate(90,128.5,150.5)"/><path d="M 145 145v 11h 11v -5.5a 5.5 5.5, 0, 0, 0, -5.5 -5.5" transform="rotate(180,150.5,150.5)"/><rect x="156" y="145" width="11" height="11" transform="rotate(0,161.5,150.5)"/><rect x="167" y="145" width="11" height="11" transform="rotate(0,172.5,150.5)"/><rect x="178" y="145" width="11" height="11" transform="rotate(0,183.5,150.5)"/><rect x="189" y="145" width="11" height="11" transform="rotate(0,194.5,150.5)"/><rect x="200" y="145" width="11" height="11" transform="rotate(0,205.5,150.5)"/><rect x="211" y="145" width="11" height="11" transform="rotate(0,216.5,150.5)"/><rect x="222" y="145" width="11" height="11" transform="rotate(0,227.5,150.5)"/><path d="M 266 145v 11h 5.5a 5.5 5.5, 0, 0, 0, 0 -11" transform="rotate(90,271.5,150.5)"/><path d="M 13 156v 11h 5.5a 5.5 5.5, 0, 0, 0, 0 -11" transform="rotate(90,18.5,161.5)"/><path d="M 57 156v 11h 11v -5.5a 5.5 5.5, 0, 0, 0, -5.5 -5.5" transform="rotate(-90,62.5,161.5)"/><path d="M 68 156v 11h 5.5a 5.5 5.5, 0, 0, 0, 0 -11" transform="rotate(0,73.5,161.5)"/><path d="M 134 156v 11h 5.5a 5.5 5.5, 0, 0, 0, 0 -11" transform="rotate(-90,139.5,161.5)"/><rect x="156" y="156" width="11" height="11" transform="rotate(0,161.5,161.5)"/><rect x="222" y="156" width="11" height="11" transform="rotate(0,227.5,161.5)"/><path d="M 244 156v 11h 5.5a 5.5 5.5, 0, 0, 0, 0 -11" transform="rotate(180,249.5,161.5)"/><path d="M 255 156v 11h 5.5a 5.5 5.5, 0, 0, 0, 0 -11" transform="rotate(0,260.5,161.5)"/><circle cx="7.5" cy="172.5" r="5.5" transform="rotate(0,7.5,172.5)"/><path d="M 35 167v 11h 5.5a 5.5 5.5, 0, 0, 0, 0 -11" transform="rotate(-90,40.5,172.5)"/><rect x="57" y="167" width="11" height="11" transform="rotate(0,62.5,172.5)"/><path d="M 79 167v 11h 5.5a 5.5 5.5, 0, 0, 0, 0 -11" transform="rotate(-90,84.5,172.5)"/><path d="M 101 167v 11h 11v -5.5a 5.5 5.5, 0, 0, 0, -5.5 -5.5" transform="rotate(-90,106.5,172.5)"/><path d="M 112 167v 11h 11v -5.5a 5.5 5.5, 0, 0, 0, -5.5 -5.5" transform="rotate(0,117.5,172.5)"/><path d="M 134 167v 11h 5.5a 5.5 5.5, 0, 0, 0, 0 -11" transform="rotate(90,139.5,172.5)"/><path d="M 156 167v 11h 11v -5.5a 5.5 5.5, 0, 0, 0, -5.5 -5.5" transform="rotate(180,161.5,172.5)"/><rect x="167" y="167" width="11" height="11" transform="rotate(0,172.5,172.5)"/><rect x="178" y="167" width="11" height="11" transform="rotate(0,183.5,172.5)"/><path d="M 189 167v 11h 11v -5.5a 5.5 5.5, 0, 0, 0, -5.5 -5.5" transform="rotate(0,194.5,172.5)"/><path d="M 211 167v 11h 11v -5.5a 5.5 5.5, 0, 0, 0, -5.5 -5.5" transform="rotate(-90,216.5,172.5)"/><rect x="222" y="167" width="11" height="11" transform="rotate(0,227.5,172.5)"/><path d="M 266 167v 11h 5.5a 5.5 5.5, 0, 0, 0, 0 -11" transform="rotate(-90,271.5,172.5)"/><path d="M 35 178v 11h 11v -5.5a 5.5 5.5, 0, 0, 0, -5.5 -5.5" transform="rotate(180,40.5,183.5)"/><rect x="46" y="178" width="11" height="11" transform="rotate(0,51.5,183.5)"/><rect x="57" y="178" width="11" height="11" transform="rotate(0,62.5,183.5)"/><rect x="68" y="178" width="11" height="11" transform="rotate(0,73.5,183.5)"/><rect x="79" y="178" width="11" height="11" transform="rotate(0,84.5,183.5)"/><rect x="90" y="178" width="11" height="11" transform="rotate(0,95.5,183.5)"/><rect x="101" y="178" width="11" height="11" transform="rotate(0,106.5,183.5)"/><rect x="112" y="178" width="11" height="11" transform="rotate(0,117.5,183.5)"/><path d="M 123 178v 11h 5.5a 5.5 5.5, 0, 0, 0, 0 -11" transform="rotate(0,128.5,183.5)"/><circle cx="150.5" cy="183.5" r="5.5" transform="rotate(0,150.5,183.5)"/><rect x="178" y="178" width="11" height="11" transform="rotate(0,183.5,183.5)"/><rect x="189" y="178" width="11" height="11" transform="rotate(0,194.5,183.5)"/><rect x="200" y="178" width="11" height="11" transform="rotate(0,205.5,183.5)"/><rect x="211" y="178" width="11" height="11" transform="rotate(0,216.5,183.5)"/><rect x="222" y="178" width="11" height="11" transform="rotate(0,227.5,183.5)"/><rect x="233" y="178" width="11" height="11" transform="rotate(0,238.5,183.5)"/><rect x="244" y="178" width="11" height="11" transform="rotate(0,249.5,183.5)"/><rect x="255" y="178" width="11" height="11" transform="rotate(0,260.5,183.5)"/><rect x="266" y="178" width="11" height="11" transform="rotate(0,271.5,183.5)"/><rect x="90" y="189" width="11" height="11" transform="rotate(0,95.5,194.5)"/><path d="M 134 189v 11h 5.5a 5.5 5.5, 0, 0, 0, 0 -11" transform="rotate(-90,139.5,194.5)"/><rect x="178" y="189" width="11" height="11" transform="rotate(0,183.5,194.5)"/><rect x="222" y="189" width="11" height="11" transform="rotate(0,227.5,194.5)"/><rect x="244" y="189" width="11" height="11" transform="rotate(0,249.5,194.5)"/><rect x="266" y="189" width="11" height="11" transform="rotate(0,271.5,194.5)"/><rect x="90" y="200" width="11" height="11" transform="rotate(0,95.5,205.5)"/><rect x="101" y="200" width="11" height="11" transform="rotate(0,106.5,205.5)"/><rect x="112" y="200" width="11" height="11" transform="rotate(0,117.5,205.5)"/><rect x="123" y="200" width="11" height="11" transform="rotate(0,128.5,205.5)"/><rect x="134" y="200" width="11" height="11" transform="rotate(0,139.5,205.5)"/><circle cx="161.5" cy="205.5" r="5.5" transform="rotate(0,161.5,205.5)"/><rect x="178" y="200" width="11" height="11" transform="rotate(0,183.5,205.5)"/><circle cx="205.5" cy="205.5" r="5.5" transform="rotate(0,205.5,205.5)"/><rect x="222" y="200" width="11" height="11" transform="rotate(0,227.5,205.5)"/><path d="M 244 200v 11h 11v -5.5a 5.5 5.5, 0, 0, 0, -5.5 -5.5" transform="rotate(180,249.5,205.5)"/><rect x="255" y="200" width="11" height="11" transform="rotate(0,260.5,205.5)"/><rect x="266" y="200" width="11" height="11" transform="rotate(0,271.5,205.5)"/><path d="M 90 211v 11h 11v -5.5a 5.5 5.5, 0, 0, 0, -5.5 -5.5" transform="rotate(180,95.5,216.5)"/><rect x="101" y="211" width="11" height="11" transform="rotate(0,106.5,216.5)"/><rect x="134" y="211" width="11" height="11" transform="rotate(0,139.5,216.5)"/><path d="M 167 211v 11h 5.5a 5.5 5.5, 0, 0, 0, 0 -11" transform="rotate(180,172.5,216.5)"/><rect x="178" y="211" width="11" height="11" transform="rotate(0,183.5,216.5)"/><rect x="222" y="211" width="11" height="11" transform="rotate(0,227.5,216.5)"/><rect x="255" y="211" width="11" height="11" transform="rotate(0,260.5,216.5)"/><path d="M 266 211v 11h 11v -5.5a 5.5 5.5, 0, 0, 0, -5.5 -5.5" transform="rotate(90,271.5,216.5)"/><rect x="101" y="222" width="11" height="11" transform="rotate(0,106.5,227.5)"/><path d="M 123 222v 11h 5.5a 5.5 5.5, 0, 0, 0, 0 -11" transform="rotate(180,128.5,227.5)"/><rect x="134" y="222" width="11" height="11" transform="rotate(0,139.5,227.5)"/><path d="M 145 222v 11h 11v -5.5a 5.5 5.5, 0, 0, 0, -5.5 -5.5" transform="rotate(0,150.5,227.5)"/><path d="M 178 222v 11h 11v -5.5a 5.5 5.5, 0, 0, 0, -5.5 -5.5" transform="rotate(180,183.5,227.5)"/><rect x="189" y="222" width="11" height="11" transform="rotate(0,194.5,227.5)"/><rect x="200" y="222" width="11" height="11" transform="rotate(0,205.5,227.5)"/><rect x="211" y="222" width="11" height="11" transform="rotate(0,216.5,227.5)"/><rect x="222" y="222" width="11" height="11" transform="rotate(0,227.5,227.5)"/><path d="M 233 222v 11h 11v -5.5a 5.5 5.5, 0, 0, 0, -5.5 -5.5" transform="rotate(0,238.5,227.5)"/><rect x="255" y="222" width="11" height="11" transform="rotate(0,260.5,227.5)"/><path d="M 90 233v 11h 11v -5.5a 5.5 5.5, 0, 0, 0, -5.5 -5.5" transform="rotate(-90,95.5,238.5)"/><rect x="101" y="233" width="11" height="11" transform="rotate(0,106.5,238.5)"/><path d="M 112 233v 11h 5.5a 5.5 5.5, 0, 0, 0, 0 -11" transform="rotate(0,117.5,238.5)"/><rect x="134" y="233" width="11" height="11" transform="rotate(0,139.5,238.5)"/><rect x="145" y="233" width="11" height="11" transform="rotate(0,150.5,238.5)"/><path d="M 167 233v 11h 5.5a 5.5 5.5, 0, 0, 0, 0 -11" transform="rotate(-90,172.5,238.5)"/><rect x="189" y="233" width="11" height="11" transform="rotate(0,194.5,238.5)"/><rect x="200" y="233" width="11" height="11" transform="rotate(0,205.5,238.5)"/><rect x="222" y="233" width="11" height="11" transform="rotate(0,227.5,238.5)"/><rect x="233" y="233" width="11" height="11" transform="rotate(0,238.5,238.5)"/><rect x="244" y="233" width="11" height="11" transform="rotate(0,249.5,238.5)"/><rect x="255" y="233" width="11" height="11" transform="rotate(0,260.5,238.5)"/><path d="M 266 233v 11h 5.5a 5.5 5.5, 0, 0, 0, 0 -11" transform="rotate(0,271.5,238.5)"/><path d="M 90 244v 11h 11v -5.5a 5.5 5.5, 0, 0, 0, -5.5 -5.5" transform="rotate(180,95.5,249.5)"/><rect x="101" y="244" width="11" height="11" transform="rotate(0,106.5,249.5)"/><path d="M 123 244v 11h 5.5a 5.5 5.5, 0, 0, 0, 0 -11" transform="rotate(180,128.5,249.5)"/><rect x="134" y="244" width="11" height="11" transform="rotate(0,139.5,249.5)"/><path d="M 145 244v 11h 11v -5.5a 5.5 5.5, 0, 0, 0, -5.5 -5.5" transform="rotate(90,150.5,249.5)"/><path d="M 167 244v 11h 5.5a 5.5 5.5, 0, 0, 0, 0 -11" transform="rotate(90,172.5,249.5)"/><rect x="189" y="244" width="11" height="11" transform="rotate(0,194.5,249.5)"/><rect x="200" y="244" width="11" height="11" transform="rotate(0,205.5,249.5)"/><rect x="222" y="244" width="11" height="11" transform="rotate(0,227.5,249.5)"/><rect x="244" y="244" width="11" height="11" transform="rotate(0,249.5,249.5)"/><path d="M 255 244v 11h 11v -5.5a 5.5 5.5, 0, 0, 0, -5.5 -5.5" transform="rotate(90,260.5,249.5)"/><path d="M 101 255v 11h 11v -5.5a 5.5 5.5, 0, 0, 0, -5.5 -5.5" transform="rotate(180,106.5,260.5)"/><path d="M 112 255v 11h 5.5a 5.5 5.5, 0, 0, 0, 0 -11" transform="rotate(0,117.5,260.5)"/><rect x="189" y="255" width="11" height="11" transform="rotate(0,194.5,260.5)"/><path d="M 200 255v 11h 11v -5.5a 5.5 5.5, 0, 0, 0, -5.5 -5.5" transform="rotate(90,205.5,260.5)"/><rect x="222" y="255" width="11" height="11" transform="rotate(0,227.5,260.5)"/><rect x="244" y="255" width="11" height="11" transform="rotate(0,249.5,260.5)"/><circle cx="95.5" cy="271.5" r="5.5" transform="rotate(0,95.5,271.5)"/><circle cx="139.5" cy="271.5" r="5.5" transform="rotate(0,139.5,271.5)"/><circle cx="161.5" cy="271.5" r="5.5" transform="rotate(0,161.5,271.5)"/><path d="M 189 266v 11h 5.5a 5.5 5.5, 0, 0, 0, 0 -11" transform="rotate(90,194.5,271.5)"/><path d="M 211 266v 11h 5.5a 5.5 5.5, 0, 0, 0, 0 -11" transform="rotate(180,216.5,271.5)"/><rect x="222" y="266" width="11" height="11" transform="rotate(0,227.5,271.5)"/><rect x="233" y="266" width="11" height="11" transform="rotate(0,238.5,271.5)"/><rect x="244" y="266" width="11" height="11" transform="rotate(0,249.5,271.5)"/><rect x="255" y="266" width="11" height="11" transform="rotate(0,260.5,271.5)"/><path d="M 266 266v 11h 5.5a 5.5 5.5, 0, 0, 0, 0 -11" transform="rotate(0,271.5,271.5)"/></clipPath><linearGradient id="dot-color-0" gradientUnits="userSpaceOnUse" x1="0" y1="140" x2="280" y2="140"><stop offset="0%" stop-color="#007aff"/><stop offset="100%" stop-color="#34c759"/></linearGradient><clipPath id="clip-path-corners-square-color-0-0-0"><path clip-rule="evenodd" d="M 2 29.5v 22a 27.5 27.5, 0, 0, 0, 27.5 27.5h 22a 27.5 27.5, 0, 0, 0, 27.5 -27.5v -22a 27.5 27.5, 0, 0, 0, -27.5 -27.5h -22a 27.5 27.5, 0, 0, 0, -27.5 27.5M 29.5 13h 22a 16.5 16.5, 0, 0, 1, 16.5 16.5v 22a 16.5 16.5, 0, 0, 1, -16.5 16.5h -22a 16.5 16.5, 0, 0, 1, -16.5 -16.5v -22a 16.5 16.5, 0, 0, 1, 16.5 -16.5" transform="rotate(0,40.5,40.5)"/></clipPath><clipPath id="clip-path-corners-dot-color-0-0-0"><path d="M 24 24v 11h 11v -5.5a 5.5 5.5, 0, 0, 0, -5.5 -5.5" transform="rotate(-90,29.5,29.5)"/><rect x="35" y="24" width="11" height="11" transform="rotate(0,40.5,29.5)"/><path d="M 46 24v 11h 11v -5.5a 5.5 5.5, 0, 0, 0, -5.5 -5.5" transform="rotate(0,51.5,29.5)"/><rect x="24" y="35" width="11" height="11" transform="rotate(0,29.5,40.5)"/><rect x="35" y="35" width="11" height="11" transform="rotate(0,40.5,40.5)"/><rect x="46" y="35" width="11" height="11" transform="rotate(0,51.5,40.5)"/><path d="M 24 46v 11h 11v -5.5a 5.5 5.5, 0, 0, 0, -5.5 -5.5" transform="rotate(180,29.5,51.5)"/><rect x="35" y="46" width="11" height="11" transform="rotate(0,40.5,51.5)"/><path d="M 46 46v 11h 11v -5.5a 5.5 5.5, 0, 0, 0, -5.5 -5.5" transform="rotate(90,51.5,51.5)"/></clipPath><clipPath id="clip-path-corners-square-color-1-0-0"><path clip-rule="evenodd" d="M 200 29.5v 22a 27.5 27.5, 0, 0, 0, 27.5 27.5h 22a 27.5 27.5, 0, 0, 0, 27.5 -27.5v -22a 27.5 27.5, 0, 0, 0, -27.5 -27.5h -22a 27.5 27.5, 0, 0, 0, -27.5 27.5M 227.5 13h 22a 16.5 16.5, 0, 0, 1, 16.5 16.5v 22a 16.5 16.5, 0, 0, 1, -16.5 16.5h -22a 16.5 16.5, 0, 0, 1, -16.5 -16.5v -22a 16.5 16.5, 0, 0, 1, 16.5 -16.5" transform="rotate(90,238.5,40.5)"/></clipPath><clipPath id="clip-path-corners-dot-color-1-0-0"><path d="M 222 24v 11h 11v -5.5a 5.5 5.5, 0, 0, 0, -5.5 -5.5" transform="rotate(-90,227.5,29.5)"/><rect x="233" y="24" width="11" height="11" transform="rotate(0,238.5,29.5)"/><path d="M 244 24v 11h 11v -5.5a 5.5 5.5, 0, 0, 0, -5.5 -5.5" transform="rotate(0,249.5,29.5)"/><rect x="222" y="35" width="11" height="11" transform="rotate(0,227.5,40.5)"/><rect x="233" y="35" width="11" height="11" transform="rotate(0,238.5,40.5)"/><rect x="244" y="35" width="11" height="11" transform="rotate(0,249.5,40.5)"/><path d="M 222 46v 11h 11v -5.5a 5.5 5.5, 0, 0, 0, -5.5 -5.5" transform="rotate(180,227.5,51.5)"/><rect x="233" y="46" width="11" height="11" transform="rotate(0,238.5,51.5)"/><path d="M 244 46v 11h 11v -5.5a 5.5 5.5, 0, 0, 0, -5.5 -5.5" transform="rotate(90,249.5,51.5)"/></clipPath><clipPath id="clip-path-corners-square-color-0-1-0"><path clip-rule="evenodd" d="M 2 227.5v 22a 27.5 27.5, 0, 0, 0, 27.5 27.5h 22a 27.5 27.5, 0, 0, 0, 27.5 -27.5v -22a 27.5 27.5, 0, 0, 0, -27.5 -27.5h -22a 27.5 27.5, 0, 0, 0, -27.5 27.5M 29.5 211h 22a 16.5 16.5, 0, 0, 1, 16.5 16.5v 22a 16.5 16.5, 0, 0, 1, -16.5 16.5h -22a 16.5 16.5, 0, 0, 1, -16.5 -16.5v -22a 16.5 16.5, 0, 0, 1, 16.5 -16.5" transform="rotate(-90,40.5,238.5)"/></clipPath><clipPath id="clip-path-corners-dot-color-0-1-0"><path d="M 24 222v 11h 11v -5.5a 5.5 5.5, 0, 0, 0, -5.5 -5.5" transform="rotate(-90,29.5,227.5)"/><rect x="35" y="222" width="11" height="11" transform="rotate(0,40.5,227.5)"/><path d="M 46 222v 11h 11v -5.5a 5.5 5.5, 0, 0, 0, -5.5 -5.5" transform="rotate(0,51.5,227.5)"/><rect x="24" y="233" width="11" height="11" transform="rotate(0,29.5,238.5)"/><rect x="35" y="233" width="11" height="11" transform="rotate(0,40.5,238.5)"/><rect x="46" y="233" width="11" height="11" transform="rotate(0,51.5,238.5)"/><path d="M 24 244v 11h 11v -5.5a 5.5 5.5, 0, 0, 0, -5.5 -5.5" transform="rotate(180,29.5,249.5)"/><rect x="35" y="244" width="11" height="11" transform="rotate(0,40.5,249.5)"/><path d="M 46 244v 11h 11v -5.5a 5.5 5.5, 0, 0, 0, -5.5 -5.5" transform="rotate(90,51.5,249.5)"/></clipPath></defs><rect x="0" y="0" height="280" width="280" clip-path="url('#clip-path-background-color-0')" fill="#ffffff"/><rect x="0" y="0" height="280" width="280" clip-path="url('#clip-path-dot-color-0')" fill="url('#dot-color-0')"/><rect x="2" y="2" height="77" width="77" clip-path="url('#clip-path-corners-square-color-0-0-0')" fill="#007aff"/><rect x="24" y="24" height="33" width="33" clip-path="url('#clip-path-corners-dot-color-0-0-0')" fill="#34c759"/><rect x="200" y="2" height="77" width="77" clip-path="url('#clip-path-corners-square-color-1-0-0')" fill="#007aff"/><rect x="222" y="24" height="33" width="33" clip-path="url('#clip-path-corners-dot-color-1-0-0')" fill="#34c759"/><rect x="2" y="200" height="77" width="77" clip-path="url('#clip-path-corners-square-color-0-1-0')" fill="#007aff"/><rect x="24" y="222" height="33" width="33" clip-path="url('#clip-path-corners-dot-color-0-1-0')" fill="#34c759"/></svg>